<mxfile host="drawio-plugin" modified="2023-02-06T17:27:03.605Z" agent="5.0 (Windows NT 6.2; Win64; x64) AppleWebKit/537.36 (KHTML, like Gecko) Chrome/97.0.4692.45 Safari/537.36" etag="daSCZVbK8EhuRseeQrEX" version="20.5.3" type="embed"><diagram id="dFSEmgIlatqLbQOFzwdS" name="Page-1"><mxGraphModel dx="1132" dy="727" grid="1" gridSize="10" guides="1" tooltips="1" connect="1" arrows="1" fold="1" page="1" pageScale="1" pageWidth="850" pageHeight="1100" math="0" shadow="1"><root><mxCell id="0"/><mxCell id="1" parent="0"/><mxCell id="knGnKSw78JdQFl1_DNy8-3" value="Balancer" style="rounded=0;whiteSpace=wrap;html=1;" parent="1" vertex="1"><mxGeometry x="230" y="365" width="120" height="60" as="geometry"/></mxCell><mxCell id="knGnKSw78JdQFl1_DNy8-4" value="Postgress" style="shape=cylinder3;whiteSpace=wrap;html=1;boundedLbl=1;backgroundOutline=1;size=15;rounded=0;" parent="1" vertex="1"><mxGeometry x="440" y="355" width="60" height="80" as="geometry"/></mxCell><mxCell id="knGnKSw78JdQFl1_DNy8-5" value="" style="rounded=0;whiteSpace=wrap;html=1;align=left;" parent="1" vertex="1"><mxGeometry x="100" y="540" width="260" height="130" as="geometry"/></mxCell><mxCell id="knGnKSw78JdQFl1_DNy8-6" value="Nod 1" style="text;html=1;strokeColor=none;fillColor=none;align=left;verticalAlign=middle;whiteSpace=wrap;rounded=0;" parent="1" vertex="1"><mxGeometry x="120" y="510" width="60" height="30" as="geometry"/></mxCell><mxCell id="knGnKSw78JdQFl1_DNy8-7" value="Unitate de control" style="rounded=0;whiteSpace=wrap;html=1;" parent="1" vertex="1"><mxGeometry x="110" y="550" width="100" height="30" as="geometry"/></mxCell><mxCell id="knGnKSw78JdQFl1_DNy8-8" value="Resursă 1" style="rounded=0;whiteSpace=wrap;html=1;" parent="1" vertex="1"><mxGeometry x="110" y="590" width="100" height="30" as="geometry"/></mxCell><mxCell id="knGnKSw78JdQFl1_DNy8-9" value="Resursă 2" style="rounded=0;whiteSpace=wrap;html=1;" parent="1" vertex="1"><mxGeometry x="110" y="630" width="100" height="30" as="geometry"/></mxCell><mxCell id="knGnKSw78JdQFl1_DNy8-10" value="Resursă 3" style="rounded=0;whiteSpace=wrap;html=1;" parent="1" vertex="1"><mxGeometry x="250" y="550" width="100" height="30" as="geometry"/></mxCell><mxCell id="knGnKSw78JdQFl1_DNy8-11" value="Resursă 4" style="rounded=0;whiteSpace=wrap;html=1;" parent="1" vertex="1"><mxGeometry x="250" y="590" width="100" height="30" as="geometry"/></mxCell><mxCell id="knGnKSw78JdQFl1_DNy8-12" value="" style="rounded=0;whiteSpace=wrap;html=1;align=left;" parent="1" vertex="1"><mxGeometry x="580" y="540" width="260" height="130" as="geometry"/></mxCell><mxCell id="knGnKSw78JdQFl1_DNy8-13" value="Nod n" style="text;html=1;strokeColor=none;fillColor=none;align=left;verticalAlign=middle;whiteSpace=wrap;rounded=0;" parent="1" vertex="1"><mxGeometry x="580" y="510" width="60" height="30" as="geometry"/></mxCell><mxCell id="knGnKSw78JdQFl1_DNy8-14" value="Unitate de control" style="rounded=0;whiteSpace=wrap;html=1;" parent="1" vertex="1"><mxGeometry x="590" y="550" width="100" height="30" as="geometry"/></mxCell><mxCell id="knGnKSw78JdQFl1_DNy8-15" value="Resursă 1" style="rounded=0;whiteSpace=wrap;html=1;" parent="1" vertex="1"><mxGeometry x="590" y="590" width="100" height="30" as="geometry"/></mxCell><mxCell id="knGnKSw78JdQFl1_DNy8-16" value="Resursă 2" style="rounded=0;whiteSpace=wrap;html=1;" parent="1" vertex="1"><mxGeometry x="590" y="630" width="100" height="30" as="geometry"/></mxCell><mxCell id="knGnKSw78JdQFl1_DNy8-17" value="Resursă 3" style="rounded=0;whiteSpace=wrap;html=1;" parent="1" vertex="1"><mxGeometry x="730" y="550" width="100" height="30" as="geometry"/></mxCell><mxCell id="knGnKSw78JdQFl1_DNy8-18" value="Resursă 4" style="rounded=0;whiteSpace=wrap;html=1;" parent="1" vertex="1"><mxGeometry x="730" y="590" width="100" height="30" as="geometry"/></mxCell><mxCell id="knGnKSw78JdQFl1_DNy8-19" value="Resursă 5" style="rounded=0;whiteSpace=wrap;html=1;" parent="1" vertex="1"><mxGeometry x="730" y="630" width="100" height="30" as="geometry"/></mxCell><mxCell id="knGnKSw78JdQFl1_DNy8-24" value="" style="endArrow=none;dashed=1;html=1;dashPattern=1 4;strokeWidth=2;rounded=0;" parent="1" edge="1"><mxGeometry width="50" height="50" relative="1" as="geometry"><mxPoint x="380" y="610" as="sourcePoint"/><mxPoint x="560" y="610" as="targetPoint"/></mxGeometry></mxCell><mxCell id="Y7V88AtCgE-KLZqyX0Jm-6" value="Client 1" style="ellipse;whiteSpace=wrap;html=1;rounded=0;" parent="1" vertex="1"><mxGeometry x="72" y="367" width="120" height="80" as="geometry"/></mxCell><mxCell id="Y7V88AtCgE-KLZqyX0Jm-5" value="Client 1" style="ellipse;whiteSpace=wrap;html=1;rounded=0;" parent="1" vertex="1"><mxGeometry x="66" y="361" width="120" height="80" as="geometry"/></mxCell><mxCell id="Y7V88AtCgE-KLZqyX0Jm-4" value="Client 1" style="ellipse;whiteSpace=wrap;html=1;rounded=0;" parent="1" vertex="1"><mxGeometry x="60" y="355" width="120" height="80" as="geometry"/></mxCell><mxCell id="Y7V88AtCgE-KLZqyX0Jm-7" value="" style="endArrow=classic;html=1;rounded=0;exitX=1;exitY=0.5;exitDx=0;exitDy=0;entryX=0;entryY=0.5;entryDx=0;entryDy=0;fillColor=#d5e8d4;strokeColor=#82b366;" parent="1" source="Y7V88AtCgE-KLZqyX0Jm-4" target="knGnKSw78JdQFl1_DNy8-3" edge="1"><mxGeometry width="50" height="50" relative="1" as="geometry"><mxPoint x="440" y="450" as="sourcePoint"/><mxPoint x="490" y="400" as="targetPoint"/></mxGeometry></mxCell><mxCell id="Y7V88AtCgE-KLZqyX0Jm-8" value="" style="endArrow=classic;html=1;rounded=0;exitX=0.75;exitY=1;exitDx=0;exitDy=0;entryX=1;entryY=0.5;entryDx=0;entryDy=0;fillColor=#d5e8d4;strokeColor=#82b366;" parent="1" source="knGnKSw78JdQFl1_DNy8-3" target="knGnKSw78JdQFl1_DNy8-16" edge="1"><mxGeometry width="50" height="50" relative="1" as="geometry"><mxPoint x="470" y="440" as="sourcePoint"/><mxPoint x="720" y="500" as="targetPoint"/><Array as="points"><mxPoint x="320" y="480"/><mxPoint x="710" y="480"/><mxPoint x="710" y="645"/></Array></mxGeometry></mxCell><mxCell id="Y7V88AtCgE-KLZqyX0Jm-9" value="" style="endArrow=classic;html=1;rounded=0;exitX=0.75;exitY=1;exitDx=0;exitDy=0;entryX=0;entryY=0.5;entryDx=0;entryDy=0;fillColor=#d5e8d4;strokeColor=#82b366;" parent="1" source="knGnKSw78JdQFl1_DNy8-3" target="knGnKSw78JdQFl1_DNy8-19" edge="1"><mxGeometry width="50" height="50" relative="1" as="geometry"><mxPoint x="472" y="430" as="sourcePoint"/><mxPoint x="700" y="655" as="targetPoint"/><Array as="points"><mxPoint x="320" y="480"/><mxPoint x="710" y="480"/><mxPoint x="710" y="645"/></Array></mxGeometry></mxCell><mxCell id="Y7V88AtCgE-KLZqyX0Jm-10" value="" style="endArrow=classic;html=1;rounded=0;exitX=0.75;exitY=1;exitDx=0;exitDy=0;entryX=0;entryY=0.5;entryDx=0;entryDy=0;fillColor=#d5e8d4;strokeColor=#82b366;" parent="1" source="knGnKSw78JdQFl1_DNy8-3" target="knGnKSw78JdQFl1_DNy8-18" edge="1"><mxGeometry width="50" height="50" relative="1" as="geometry"><mxPoint x="472" y="430" as="sourcePoint"/><mxPoint x="740" y="655" as="targetPoint"/><Array as="points"><mxPoint x="320" y="480"/><mxPoint x="710" y="480"/><mxPoint x="710" y="605"/></Array></mxGeometry></mxCell><mxCell id="Y7V88AtCgE-KLZqyX0Jm-11" value="" style="endArrow=classic;html=1;rounded=0;exitX=0.75;exitY=1;exitDx=0;exitDy=0;entryX=1;entryY=0.5;entryDx=0;entryDy=0;fillColor=#d5e8d4;strokeColor=#82b366;" parent="1" source="knGnKSw78JdQFl1_DNy8-3" target="knGnKSw78JdQFl1_DNy8-15" edge="1"><mxGeometry width="50" height="50" relative="1" as="geometry"><mxPoint x="472" y="430" as="sourcePoint"/><mxPoint x="740" y="615" as="targetPoint"/><Array as="points"><mxPoint x="320" y="480"/><mxPoint x="710" y="480"/><mxPoint x="710" y="605"/></Array></mxGeometry></mxCell><mxCell id="Y7V88AtCgE-KLZqyX0Jm-12" value="" style="endArrow=classic;html=1;rounded=0;exitX=0.75;exitY=1;exitDx=0;exitDy=0;entryX=0;entryY=0.5;entryDx=0;entryDy=0;fillColor=#d5e8d4;strokeColor=#82b366;" parent="1" source="knGnKSw78JdQFl1_DNy8-3" target="knGnKSw78JdQFl1_DNy8-17" edge="1"><mxGeometry width="50" height="50" relative="1" as="geometry"><mxPoint x="482" y="440" as="sourcePoint"/><mxPoint x="700" y="615" as="targetPoint"/><Array as="points"><mxPoint x="320" y="480"/><mxPoint x="710" y="480"/><mxPoint x="710" y="565"/></Array></mxGeometry></mxCell><mxCell id="Y7V88AtCgE-KLZqyX0Jm-13" value="" style="endArrow=classic;html=1;rounded=0;exitX=0.75;exitY=1;exitDx=0;exitDy=0;entryX=1;entryY=0.5;entryDx=0;entryDy=0;fillColor=#d5e8d4;strokeColor=#82b366;" parent="1" source="knGnKSw78JdQFl1_DNy8-3" target="knGnKSw78JdQFl1_DNy8-9" edge="1"><mxGeometry width="50" height="50" relative="1" as="geometry"><mxPoint x="250" y="500" as="sourcePoint"/><mxPoint x="300" y="450" as="targetPoint"/><Array as="points"><mxPoint x="320" y="480"/><mxPoint x="230" y="480"/><mxPoint x="230" y="645"/></Array></mxGeometry></mxCell><mxCell id="Y7V88AtCgE-KLZqyX0Jm-14" value="" style="endArrow=classic;html=1;rounded=0;exitX=0.75;exitY=1;exitDx=0;exitDy=0;entryX=1;entryY=0.5;entryDx=0;entryDy=0;fillColor=#d5e8d4;strokeColor=#82b366;" parent="1" source="knGnKSw78JdQFl1_DNy8-3" target="knGnKSw78JdQFl1_DNy8-8" edge="1"><mxGeometry width="50" height="50" relative="1" as="geometry"><mxPoint x="472" y="430" as="sourcePoint"/><mxPoint x="220" y="655" as="targetPoint"/><Array as="points"><mxPoint x="320" y="480"/><mxPoint x="230" y="480"/><mxPoint x="230" y="605"/></Array></mxGeometry></mxCell><mxCell id="Y7V88AtCgE-KLZqyX0Jm-15" value="" style="endArrow=classic;html=1;rounded=0;exitX=0.75;exitY=1;exitDx=0;exitDy=0;entryX=0;entryY=0.5;entryDx=0;entryDy=0;fillColor=#d5e8d4;strokeColor=#82b366;" parent="1" source="knGnKSw78JdQFl1_DNy8-3" target="knGnKSw78JdQFl1_DNy8-11" edge="1"><mxGeometry width="50" height="50" relative="1" as="geometry"><mxPoint x="482" y="440" as="sourcePoint"/><mxPoint x="220" y="615" as="targetPoint"/><Array as="points"><mxPoint x="320" y="480"/><mxPoint x="230" y="480"/><mxPoint x="230" y="605"/></Array></mxGeometry></mxCell><mxCell id="Y7V88AtCgE-KLZqyX0Jm-16" value="" style="endArrow=classic;html=1;rounded=0;entryX=0;entryY=0.5;entryDx=0;entryDy=0;fillColor=#d5e8d4;strokeColor=#82b366;exitX=0.75;exitY=1;exitDx=0;exitDy=0;" parent="1" source="knGnKSw78JdQFl1_DNy8-3" target="knGnKSw78JdQFl1_DNy8-10" edge="1"><mxGeometry width="50" height="50" relative="1" as="geometry"><mxPoint x="460" y="420" as="sourcePoint"/><mxPoint x="260" y="615" as="targetPoint"/><Array as="points"><mxPoint x="320" y="480"/><mxPoint x="230" y="480"/><mxPoint x="230" y="565"/></Array></mxGeometry></mxCell><mxCell id="2" value="Scaller" style="rounded=0;whiteSpace=wrap;html=1;" parent="1" vertex="1"><mxGeometry x="580" y="365" width="120" height="60" as="geometry"/></mxCell><mxCell id="3" value="Pulsar" style="rounded=1;whiteSpace=wrap;html=1;arcSize=50;" parent="1" vertex="1"><mxGeometry x="190" y="230" width="490" height="60" as="geometry"/></mxCell><mxCell id="7" value="" style="group;spacingRight=22;spacingLeft=0;" parent="1" vertex="1" connectable="0"><mxGeometry x="375" y="130" width="120" height="60" as="geometry"/></mxCell><mxCell id="Y7V88AtCgE-KLZqyX0Jm-1" value="Api de&lt;br&gt;&amp;nbsp;control" style="rounded=0;whiteSpace=wrap;html=1;align=right;" parent="7" vertex="1"><mxGeometry width="120" height="60" as="geometry"/></mxCell><mxCell id="knGnKSw78JdQFl1_DNy8-1" value="UI" style="ellipse;whiteSpace=wrap;html=1;aspect=fixed;rounded=0;" parent="7" vertex="1"><mxGeometry x="3" y="5" width="50" height="50" as="geometry"/></mxCell><mxCell id="8" value="" style="endArrow=classic;html=1;rounded=0;fillColor=#dae8fc;strokeColor=#6c8ebf;" parent="1" edge="1"><mxGeometry width="50" height="50" relative="1" as="geometry"><mxPoint x="30" y="40" as="sourcePoint"/><mxPoint x="160" y="40" as="targetPoint"/></mxGeometry></mxCell><mxCell id="9" value="configuration topic" style="text;html=1;align=center;verticalAlign=middle;resizable=0;points=[];autosize=1;strokeColor=none;fillColor=none;" parent="1" vertex="1"><mxGeometry x="160" y="25" width="120" height="30" as="geometry"/></mxCell><mxCell id="10" value="" style="endArrow=classic;html=1;rounded=0;fillColor=#dae8fc;strokeColor=#6c8ebf;exitX=0.5;exitY=1;exitDx=0;exitDy=0;entryX=0.5;entryY=0;entryDx=0;entryDy=0;" parent="1" source="Y7V88AtCgE-KLZqyX0Jm-1" target="3" edge="1"><mxGeometry width="50" height="50" relative="1" as="geometry"><mxPoint x="40" y="50" as="sourcePoint"/><mxPoint x="170" y="50" as="targetPoint"/></mxGeometry></mxCell><mxCell id="12" value="" style="endArrow=classic;html=1;rounded=0;exitX=0.75;exitY=1;exitDx=0;exitDy=0;entryX=0.5;entryY=0;entryDx=0;entryDy=0;" parent="1" source="2" target="knGnKSw78JdQFl1_DNy8-14" edge="1"><mxGeometry width="50" height="50" relative="1" as="geometry"><mxPoint x="380" y="420" as="sourcePoint"/><mxPoint x="430" y="370" as="targetPoint"/><Array as="points"><mxPoint x="670" y="490"/><mxPoint x="640" y="490"/></Array></mxGeometry></mxCell><mxCell id="13" value="" style="endArrow=classic;html=1;rounded=0;exitX=0.75;exitY=1;exitDx=0;exitDy=0;entryX=0.5;entryY=0;entryDx=0;entryDy=0;" parent="1" source="2" target="knGnKSw78JdQFl1_DNy8-7" edge="1"><mxGeometry width="50" height="50" relative="1" as="geometry"><mxPoint x="380" y="420" as="sourcePoint"/><mxPoint x="430" y="370" as="targetPoint"/><Array as="points"><mxPoint x="670" y="490"/><mxPoint x="160" y="490"/></Array></mxGeometry></mxCell><mxCell id="14" value="" style="endArrow=classic;html=1;rounded=0;fillColor=#e1d5e7;strokeColor=#9673a6;" parent="1" edge="1"><mxGeometry width="50" height="50" relative="1" as="geometry"><mxPoint x="30" y="80" as="sourcePoint"/><mxPoint x="160" y="80" as="targetPoint"/></mxGeometry></mxCell><mxCell id="15" value="scalling topic" style="text;html=1;strokeColor=none;fillColor=none;align=center;verticalAlign=middle;whiteSpace=wrap;rounded=0;" parent="1" vertex="1"><mxGeometry x="160" y="60" width="90" height="30" as="geometry"/></mxCell><mxCell id="26" value="" style="endArrow=classic;html=1;rounded=0;exitX=0.75;exitY=1;exitDx=0;exitDy=0;entryX=0.75;entryY=0;entryDx=0;entryDy=0;fillColor=#dae8fc;strokeColor=#6c8ebf;" parent="1" source="3" target="2" edge="1"><mxGeometry width="50" height="50" relative="1" as="geometry"><mxPoint x="380" y="410" as="sourcePoint"/><mxPoint x="430" y="360" as="targetPoint"/><Array as="points"><mxPoint x="558" y="320"/><mxPoint x="670" y="320"/></Array></mxGeometry></mxCell><mxCell id="28" value="" style="endArrow=classic;startArrow=classic;html=1;rounded=0;exitX=1;exitY=0.5;exitDx=0;exitDy=0;exitPerimeter=0;entryX=0;entryY=0.5;entryDx=0;entryDy=0;" parent="1" source="knGnKSw78JdQFl1_DNy8-4" target="2" edge="1"><mxGeometry width="50" height="50" relative="1" as="geometry"><mxPoint x="380" y="410" as="sourcePoint"/><mxPoint x="430" y="360" as="targetPoint"/></mxGeometry></mxCell><mxCell id="29" value="" style="endArrow=classic;html=1;rounded=0;exitX=0.5;exitY=0;exitDx=0;exitDy=0;entryX=0.667;entryY=1.01;entryDx=0;entryDy=0;entryPerimeter=0;fillColor=#e1d5e7;strokeColor=#9673a6;" parent="1" source="2" target="3" edge="1"><mxGeometry width="50" height="50" relative="1" as="geometry"><mxPoint x="380" y="410" as="sourcePoint"/><mxPoint x="430" y="360" as="targetPoint"/><Array as="points"><mxPoint x="640" y="330"/><mxPoint x="517" y="330"/></Array></mxGeometry></mxCell><mxCell id="30" value="" style="endArrow=classic;html=1;rounded=0;exitX=0.25;exitY=1;exitDx=0;exitDy=0;entryX=0.5;entryY=0;entryDx=0;entryDy=0;fillColor=#e1d5e7;strokeColor=#9673a6;" parent="1" source="3" target="knGnKSw78JdQFl1_DNy8-3" edge="1"><mxGeometry width="50" height="50" relative="1" as="geometry"><mxPoint x="380" y="410" as="sourcePoint"/><mxPoint x="430" y="360" as="targetPoint"/><Array as="points"><mxPoint x="313" y="320"/><mxPoint x="290" y="320"/></Array></mxGeometry></mxCell></root></mxGraphModel></diagram></mxfile>